<svg width="16" height="16" viewBox="0 0 16 16" fill="none" xmlns="http://www.w3.org/2000/svg">
<path d="M7.99998 11.5171L5.23331 13.1838C5.11109 13.2616 4.98331 13.2949 4.84998 13.2838C4.71664 13.2727 4.59998 13.2282 4.49998 13.1505C4.39998 13.0727 4.3222 12.9756 4.26664 12.8591C4.21109 12.7427 4.19998 12.612 4.23331 12.4671L4.96664 9.31712L2.51664 7.20046C2.40553 7.10046 2.3362 6.98645 2.30864 6.85845C2.28109 6.73046 2.28931 6.60557 2.33331 6.48379C2.37731 6.36201 2.44398 6.26201 2.53331 6.18379C2.62264 6.10557 2.74486 6.05557 2.89998 6.03379L6.13331 5.75046L7.38331 2.78379C7.43886 2.65046 7.52509 2.55046 7.64198 2.48379C7.75886 2.41712 7.8782 2.38379 7.99998 2.38379C8.12175 2.38379 8.24109 2.41712 8.35798 2.48379C8.47486 2.55046 8.56109 2.65046 8.61664 2.78379L9.86664 5.75046L13.1 6.03379C13.2555 6.05601 13.3778 6.10601 13.4666 6.18379C13.5555 6.26157 13.6222 6.36157 13.6666 6.48379C13.7111 6.60601 13.7195 6.73112 13.692 6.85912C13.6644 6.98712 13.5949 7.1009 13.4833 7.20046L11.0333 9.31712L11.7666 12.4671C11.8 12.6116 11.7889 12.7422 11.7333 12.8591C11.6778 12.976 11.6 13.0731 11.5 13.1505C11.4 13.2278 11.2833 13.2722 11.15 13.2838C11.0166 13.2953 10.8889 13.262 10.7666 13.1838L7.99998 11.5171Z" fill="#FFCC4D"/>
</svg>
