<svg width="20" height="21" viewBox="0 0 20 21" fill="none" xmlns="http://www.w3.org/2000/svg">
<path d="M4.16667 3H15.8333C16.2754 3 16.6993 3.17559 17.0118 3.48816C17.3244 3.80072 17.5 4.22464 17.5 4.66667V16.3333C17.5 16.775 17.325 17.2 17.0083 17.5083C16.7 17.825 16.275 18 15.8333 18H4.16667C3.725 18 3.3 17.825 2.99167 17.5083C2.675 17.2 2.5 16.775 2.5 16.3333V4.66667C2.5 3.74167 3.24167 3 4.16667 3ZM10 14.6667L11.3 11.8167L14.1667 10.5L11.3 9.2L10 6.33333L8.69167 9.2L5.83333 10.5L8.69167 11.8167L10 14.6667Z" fill="#EB7648"/>
</svg>
