<svg xmlns="http://www.w3.org/2000/svg" viewBox="0 0 100 100" width="100" height="100">
  <defs>
    <linearGradient id="supportGradient" x1="0%" y1="0%" x2="100%" y2="100%">
      <stop offset="0%" style="stop-color:#667eea;stop-opacity:1" />
      <stop offset="100%" style="stop-color:#764ba2;stop-opacity:1" />
    </linearGradient>
  </defs>
  
  <!-- 耳機頭帶 -->
  <path d="M 30 30 Q 30 15 50 15 Q 70 15 70 30" 
        fill="none" stroke="url(#supportGradient)" stroke-width="6" stroke-linecap="round"/>
  
  <!-- 左耳罩 -->
  <rect x="20" y="30" width="15" height="25" rx="5" fill="url(#supportGradient)"/>
  <rect x="23" y="33" width="9" height="19" rx="3" fill="white" opacity="0.5"/>
  
  <!-- 右耳罩 -->
  <rect x="65" y="30" width="15" height="25" rx="5" fill="url(#supportGradient)"/>
  <rect x="68" y="33" width="9" height="19" rx="3" fill="white" opacity="0.5"/>
  
  <!-- 麥克風 -->
  <path d="M 20 45 Q 10 45 10 55 L 10 60" 
        fill="none" stroke="url(#supportGradient)" stroke-width="3" stroke-linecap="round"/>
  <circle cx="10" cy="63" r="3" fill="url(#supportGradient)"/>
  
  <!-- 聲波 -->
  <path d="M 50 70 Q 40 75 40 85" fill="none" stroke="#667eea" stroke-width="2" opacity="0.4"/>
  <path d="M 50 70 Q 50 77 50 85" fill="none" stroke="#667eea" stroke-width="2" opacity="0.6"/>
  <path d="M 50 70 Q 60 75 60 85" fill="none" stroke="#667eea" stroke-width="2" opacity="0.4"/>
</svg>
