<svg width="20" height="21" viewBox="0 0 20 21" fill="none" xmlns="http://www.w3.org/2000/svg">
<path d="M9.99981 6.33333C10.2359 6.33333 10.434 6.25333 10.594 6.09333C10.754 5.93333 10.8337 5.73556 10.8331 5.5C10.8326 5.26444 10.7526 5.06667 10.5931 4.90667C10.4337 4.74667 10.2359 4.66667 9.99981 4.66667C9.7637 4.66667 9.56592 4.74667 9.40648 4.90667C9.24703 5.06667 9.16703 5.26444 9.16648 5.5C9.16592 5.73556 9.24592 5.93361 9.40648 6.09417C9.56703 6.25472 9.76481 6.33444 9.99981 6.33333ZM12.354 6.33333H13.8123C14.229 6.33333 14.5901 6.47222 14.8956 6.75C15.2012 7.02778 15.3887 7.36806 15.4581 7.77083L16.6456 16.1042C16.7151 16.6042 16.5868 17.0453 16.2606 17.4275C15.9345 17.8097 15.5143 18.0006 14.9998 18H4.99981C4.48592 18 4.06565 17.8092 3.73898 17.4275C3.41231 17.0458 3.28398 16.6047 3.35398 16.1042L4.54148 7.77083C4.61092 7.36806 4.79842 7.02778 5.10398 6.75C5.40953 6.47222 5.77065 6.33333 6.18731 6.33333H7.64565C7.60398 6.19444 7.56926 6.05917 7.54148 5.9275C7.5137 5.79583 7.49981 5.65333 7.49981 5.5C7.49981 4.80556 7.74287 4.21528 8.22898 3.72917C8.71509 3.24306 9.30537 3 9.99981 3C10.6943 3 11.2845 3.24306 11.7706 3.72917C12.2568 4.21528 12.4998 4.80556 12.4998 5.5C12.4998 5.65278 12.4859 5.79528 12.4581 5.9275C12.4304 6.05972 12.3956 6.195 12.354 6.33333Z" fill="#AAAAAA"/>
</svg>
