<svg width="42" height="42" viewBox="0 0 42 42" fill="none" xmlns="http://www.w3.org/2000/svg">
<path fill-rule="evenodd" clip-rule="evenodd" d="M20.1251 3.73446C20.3911 3.58086 20.6929 3.5 21.0001 3.5C21.3073 3.5 21.6091 3.58086 21.8751 3.73446L25.3751 5.75571C25.7738 5.98942 26.0638 6.37133 26.1819 6.8181C26.3 7.26487 26.2366 7.74022 26.0056 8.14042C25.7745 8.54062 25.3945 8.83319 24.9486 8.95427C24.5026 9.07535 24.0268 9.01511 23.6251 8.78671L22.7501 8.28096V10.5C22.7501 10.9641 22.5657 11.4092 22.2375 11.7374C21.9093 12.0656 21.4642 12.25 21.0001 12.25C20.536 12.25 20.0908 12.0656 19.7627 11.7374C19.4345 11.4092 19.2501 10.9641 19.2501 10.5V8.28096L18.3751 8.78671C17.9734 9.01511 17.4976 9.07535 17.0516 8.95427C16.6057 8.83319 16.2257 8.54062 15.9946 8.14042C15.7636 7.74022 15.7002 7.26487 15.8183 6.8181C15.9364 6.37133 16.2264 5.98942 16.6251 5.75571L20.1251 3.73446ZM12.3761 10.2287C12.6081 10.6306 12.671 11.1083 12.5509 11.5566C12.4308 12.0049 12.1375 12.3871 11.7356 12.6192L10.8606 13.125L12.7821 14.2345C12.9827 14.3485 13.1588 14.5012 13.3002 14.6835C13.4416 14.8659 13.5455 15.0745 13.606 15.2972C13.6665 15.52 13.6823 15.7525 13.6526 15.9813C13.6228 16.2102 13.5481 16.4309 13.4327 16.6308C13.3173 16.8306 13.1635 17.0057 12.9802 17.1459C12.7968 17.2861 12.5876 17.3886 12.3645 17.4476C12.1413 17.5066 11.9087 17.5209 11.6801 17.4896C11.4514 17.4584 11.2312 17.3822 11.0321 17.2655L9.1106 16.156V17.1657C9.1106 17.6298 8.92622 18.075 8.59803 18.4031C8.26984 18.7313 7.82472 18.9157 7.3606 18.9157C6.89647 18.9157 6.45135 18.7313 6.12316 18.4031C5.79497 18.075 5.6106 17.6298 5.6106 17.1657V13.125C5.61091 12.8181 5.69192 12.5167 5.8455 12.251C5.99908 11.9853 6.21983 11.7646 6.4856 11.6112L9.9856 9.58996C10.3875 9.3579 10.8652 9.29502 11.3135 9.41513C11.7618 9.53525 12.144 9.82853 12.3761 10.2305V10.2287ZM29.6241 10.2287C29.8562 9.82678 30.2384 9.5335 30.6867 9.41338C31.135 9.29327 31.6127 9.35615 32.0146 9.58821L35.5146 11.6095C35.7806 11.763 36.0015 11.984 36.1551 12.25C36.3087 12.516 36.3896 12.8178 36.3896 13.125V17.1675C36.3896 17.6316 36.2052 18.0767 35.877 18.4049C35.5488 18.7331 35.1037 18.9175 34.6396 18.9175C34.1755 18.9175 33.7303 18.7331 33.4022 18.4049C33.074 18.0767 32.8896 17.6316 32.8896 17.1675V16.156L30.9681 17.2655C30.5664 17.4939 30.0906 17.5541 29.6446 17.433C29.1987 17.3119 28.8187 17.0194 28.5876 16.6192C28.3566 16.219 28.2932 15.7436 28.4113 15.2968C28.5294 14.8501 28.8194 14.4682 29.2181 14.2345L31.1396 13.125L30.2646 12.6192C29.8627 12.3871 29.5694 12.0049 29.4493 11.5566C29.3292 11.1083 29.392 10.6306 29.6241 10.2287ZM14.9381 17.5C15.1702 17.098 15.5524 16.8047 16.0007 16.6846C16.449 16.5645 16.9267 16.6274 17.3286 16.8595L21.0001 18.9787L24.6716 16.8595C25.0733 16.6311 25.5491 16.5708 25.9951 16.6919C26.441 16.813 26.821 17.1055 27.0521 17.5057C27.2831 17.9059 27.3465 18.3813 27.2284 18.8281C27.1103 19.2748 26.8203 19.6567 26.4216 19.8905L22.7501 22.0097V26.25C22.7501 26.7141 22.5657 27.1592 22.2375 27.4874C21.9093 27.8156 21.4642 28 21.0001 28C20.536 28 20.0908 27.8156 19.7627 27.4874C19.4345 27.1592 19.2501 26.7141 19.2501 26.25V22.0097L15.5786 19.8905C15.1767 19.6584 14.8834 19.2762 14.7633 18.8279C14.6432 18.3795 14.706 17.9019 14.9381 17.5ZM7.3606 23.0825C7.82472 23.0825 8.26984 23.2668 8.59803 23.595C8.92622 23.9232 9.1106 24.3683 9.1106 24.8325V25.844L11.0321 24.7345C11.4338 24.5061 11.9096 24.4458 12.3556 24.5669C12.8015 24.688 13.1815 24.9805 13.4126 25.3807C13.6436 25.7809 13.707 26.2563 13.5889 26.7031C13.4708 27.1498 13.1808 27.5317 12.7821 27.7655L10.8606 28.875L11.7356 29.3807C11.9362 29.4948 12.1123 29.6474 12.2537 29.8298C12.3951 30.0122 12.499 30.2208 12.5595 30.4435C12.62 30.6662 12.6358 30.8987 12.6061 31.1276C12.5763 31.3564 12.5016 31.5772 12.3862 31.777C12.2708 31.9769 12.117 32.152 11.9337 32.2922C11.7503 32.4323 11.5411 32.5349 11.318 32.5939C11.0948 32.6529 10.8622 32.6671 10.6336 32.6359C10.4049 32.6046 10.1847 32.5284 9.9856 32.4117L6.4856 30.3905C6.21957 30.2369 5.99866 30.016 5.84506 29.7499C5.69147 29.4839 5.6106 29.1821 5.6106 28.875V24.8325C5.6106 24.3683 5.79497 23.9232 6.12316 23.595C6.45135 23.2668 6.89647 23.0825 7.3606 23.0825ZM34.6396 23.0825C35.1037 23.0825 35.5488 23.2668 35.877 23.595C36.2052 23.9232 36.3896 24.3683 36.3896 24.8325V28.875C36.3896 29.1821 36.3087 29.4839 36.1551 29.7499C36.0015 30.016 35.7806 30.2369 35.5146 30.3905L32.0146 32.4117C31.8155 32.5284 31.5953 32.6046 31.3666 32.6359C31.138 32.6671 30.9054 32.6529 30.6822 32.5939C30.4591 32.5349 30.2499 32.4323 30.0665 32.2922C29.8832 32.152 29.7294 31.9769 29.614 31.777C29.4986 31.5772 29.4239 31.3564 29.3941 31.1276C29.3644 30.8987 29.3802 30.6662 29.4407 30.4435C29.5011 30.2208 29.6051 30.0122 29.7465 29.8298C29.8879 29.6474 30.064 29.4948 30.2646 29.3807L31.1396 28.875L29.2181 27.7655C29.0175 27.6514 28.8414 27.4988 28.7 27.3164C28.5586 27.134 28.4546 26.9254 28.3942 26.7027C28.3337 26.4799 28.3179 26.2475 28.3476 26.0186C28.3774 25.7897 28.4521 25.569 28.5675 25.3691C28.6829 25.1693 28.8367 24.9942 29.02 24.854C29.2034 24.7138 29.4126 24.6113 29.6357 24.5523C29.8589 24.4933 30.0915 24.479 30.3201 24.5103C30.5488 24.5415 30.769 24.6177 30.9681 24.7345L32.8896 25.844V24.8342C32.8896 24.3701 33.074 23.925 33.4022 23.5968C33.7303 23.2686 34.1755 23.0842 34.6396 23.0842V23.0825ZM21.0001 29.75C21.4642 29.75 21.9093 29.9343 22.2375 30.2625C22.5657 30.5907 22.7501 31.0358 22.7501 31.5V33.719L23.6251 33.2132C23.8242 33.0965 24.0444 33.0203 24.2731 32.989C24.5017 32.9578 24.7343 32.972 24.9575 33.031C25.1806 33.09 25.3898 33.1926 25.5732 33.3328C25.7565 33.4729 25.9103 33.648 26.0257 33.8479C26.1411 34.0478 26.2158 34.2685 26.2456 34.4973C26.2753 34.7262 26.2595 34.9587 26.199 35.1814C26.1385 35.4041 26.0346 35.6127 25.8932 35.7951C25.7518 35.9775 25.5757 36.1301 25.3751 36.2442L21.8751 38.2655C21.6091 38.419 21.3073 38.4999 21.0001 38.4999C20.6929 38.4999 20.3911 38.419 20.1251 38.2655L16.6251 36.2442C16.4245 36.1301 16.2484 35.9775 16.107 35.7951C15.9656 35.6127 15.8616 35.4041 15.8012 35.1814C15.7407 34.9587 15.7249 34.7262 15.7546 34.4973C15.7844 34.2685 15.8591 34.0478 15.9745 33.8479C16.0899 33.648 16.2437 33.4729 16.427 33.3328C16.6104 33.1926 16.8196 33.09 17.0427 33.031C17.2659 32.972 17.4985 32.9578 17.7271 32.989C17.9558 33.0203 18.176 33.0965 18.3751 33.2132L19.2501 33.719V31.5C19.2501 31.0358 19.4345 30.5907 19.7627 30.2625C20.0908 29.9343 20.536 29.75 21.0001 29.75Z" fill="white"/>
</svg>
