<svg width="42" height="43" viewBox="0 0 42 43" fill="none" xmlns="http://www.w3.org/2000/svg">
<path d="M30.1875 15.5535V14.6396C30.1875 10.525 23.981 7.4209 15.75 7.4209C7.51898 7.4209 1.3125 10.525 1.3125 14.6396V21.2021C1.3125 24.6294 5.61914 27.3529 11.8125 28.1682V29.0771C11.8125 33.1918 18.019 36.2959 26.25 36.2959C34.481 36.2959 40.6875 33.1918 40.6875 29.0771V22.5146C40.6875 19.1186 36.517 16.3918 30.1875 15.5535ZM9.1875 24.9543C5.97352 24.0568 3.9375 22.5786 3.9375 21.2021V18.8938C5.27625 19.8421 7.06945 20.6066 9.1875 21.1201V24.9543ZM22.3125 21.1201C24.4305 20.6066 26.2237 19.8421 27.5625 18.8938V21.2021C27.5625 22.5786 25.5265 24.0568 22.3125 24.9543V21.1201ZM19.6875 32.8293C16.4735 31.9318 14.4375 30.4536 14.4375 29.0771V28.393C14.869 28.4094 15.3054 28.4209 15.75 28.4209C16.3866 28.4209 17.0084 28.3996 17.6187 28.3635C18.2967 28.6062 18.9873 28.8121 19.6875 28.9804V32.8293ZM19.6875 25.5088C18.3839 25.7014 17.0678 25.7973 15.75 25.7959C14.4322 25.7973 13.1161 25.7014 11.8125 25.5088V21.6057C13.1181 21.7757 14.4334 21.8601 15.75 21.8584C17.0666 21.8601 18.3819 21.7757 19.6875 21.6057V25.5088ZM30.1875 33.3838C27.5764 33.7665 24.9236 33.7665 22.3125 33.3838V29.4709C23.6177 29.6463 24.9331 29.734 26.25 29.7334C27.5666 29.7351 28.8819 29.6507 30.1875 29.4807V33.3838ZM38.0625 29.0771C38.0625 30.4536 36.0265 31.9318 32.8125 32.8293V28.9951C34.9305 28.4816 36.7238 27.7171 38.0625 26.7688V29.0771Z" fill="white"/>
</svg>
