<svg width="42" height="43" viewBox="0 0 42 43" fill="none" xmlns="http://www.w3.org/2000/svg">
<g clip-path="url(#clip0_448_98)">
<path d="M22.7499 7.11132C22.7715 9.99479 23.5427 12.8231 24.9878 15.3184C26.4329 17.8137 28.5022 19.8902 30.9924 21.3441C27.8617 20.5177 25.0612 18.7476 22.9716 16.2741C20.882 13.8007 19.6046 10.7439 19.3129 7.51907L19.2359 7.51732C18.0809 7.50157 16.8157 7.59082 15.5907 7.76757C14.3692 7.94257 13.1459 8.20857 12.0837 8.56382C11.0774 8.90157 9.9959 9.38807 9.26265 10.1213L8.24765 11.1363L11.8999 16.6138C10.4772 18.8118 9.0999 21.3581 8.80765 25.4583C8.47282 25.4921 8.10998 25.5388 7.71915 25.5983C6.2194 25.8276 4.16315 26.3141 2.5304 27.4008L0.75415 28.5873L14.2729 42.1061L15.4559 40.3298C16.4412 38.8511 16.9784 37.5473 17.2479 36.2016C17.3932 35.4788 17.4544 34.7613 17.4807 34.0473C20.4627 33.8426 24.1954 33.0936 27.3017 31.3821L29.2617 35.3196L30.9819 33.5993C33.0609 31.5186 34.2719 29.0808 34.9597 27.2066C35.3064 26.2691 35.5797 25.306 35.7769 24.3261C38.0257 21.2461 38.8429 17.6568 39.0407 14.6136C39.2454 11.4513 38.7957 8.71257 38.4387 7.40007L38.1517 6.34132L37.0737 6.13832C31.6277 5.11632 26.7294 5.24057 22.7499 7.11132ZM33.9797 12.2283L31.4999 14.7081L29.0202 12.2283L31.4999 9.74857L33.9797 12.2283Z" fill="white"/>
</g>
<defs>
<clipPath id="clip0_448_98">
<rect width="42" height="42" fill="white" transform="translate(0 0.858398)"/>
</clipPath>
</defs>
</svg>
