<svg width="42" height="34" viewBox="0 0 42 34" fill="none" xmlns="http://www.w3.org/2000/svg">
<path d="M12.6 4.625C5.64375 4.625 0 10.168 0 17C0 23.832 5.64375 29.375 12.6 29.375H29.4C36.3562 29.375 42 23.832 42 17C42 10.168 36.3562 4.625 29.4 4.625H12.6ZM32.55 11.3281C33.2462 11.3281 33.9139 11.5997 34.4062 12.0832C34.8984 12.5667 35.175 13.2225 35.175 13.9062C35.175 14.59 34.8984 15.2458 34.4062 15.7293C33.9139 16.2128 33.2462 16.4844 32.55 16.4844C31.8538 16.4844 31.1861 16.2128 30.6938 15.7293C30.2016 15.2458 29.925 14.59 29.925 13.9062C29.925 13.2225 30.2016 12.5667 30.6938 12.0832C31.1861 11.5997 31.8538 11.3281 32.55 11.3281ZM25.725 20.0938C25.725 19.41 26.0016 18.7542 26.4938 18.2707C26.9861 17.7872 27.6538 17.5156 28.35 17.5156C29.0462 17.5156 29.7139 17.7872 30.2062 18.2707C30.6984 18.7542 30.975 19.41 30.975 20.0938C30.975 20.7775 30.6984 21.4333 30.2062 21.9168C29.7139 22.4003 29.0462 22.6719 28.35 22.6719C27.6538 22.6719 26.9861 22.4003 26.4938 21.9168C26.0016 21.4333 25.725 20.7775 25.725 20.0938ZM11.025 13.3906C11.025 12.5334 11.7272 11.8438 12.6 11.8438C13.4728 11.8438 14.175 12.5334 14.175 13.3906V15.4531H16.275C17.1478 15.4531 17.85 16.1428 17.85 17C17.85 17.8572 17.1478 18.5469 16.275 18.5469H14.175V20.6094C14.175 21.4666 13.4728 22.1562 12.6 22.1562C11.7272 22.1562 11.025 21.4666 11.025 20.6094V18.5469H8.925C8.05219 18.5469 7.35 17.8572 7.35 17C7.35 16.1428 8.05219 15.4531 8.925 15.4531H11.025V13.3906Z" fill="white"/>
</svg>
